<svg width="40" height="41" viewBox="0 0 40 41" fill="none" xmlns="http://www.w3.org/2000/svg">
<path d="M9.5 22H27.29L21.845 28.54C21.7189 28.6917 21.624 28.8667 21.5655 29.0551C21.5071 29.2435 21.4864 29.4415 21.5045 29.6379C21.541 30.0345 21.7337 30.4004 22.04 30.655C22.3463 30.9096 22.7412 31.0321 23.1379 30.9955C23.5345 30.959 23.9004 30.7663 24.155 30.46L31.655 21.46C31.7055 21.3884 31.7506 21.3132 31.79 21.235C31.79 21.16 31.865 21.115 31.895 21.04C31.963 20.868 31.9986 20.6849 32 20.5C31.9986 20.3151 31.963 20.132 31.895 19.96C31.895 19.885 31.82 19.84 31.79 19.765C31.7506 19.6868 31.7055 19.6116 31.655 19.54L24.155 10.54C24.014 10.3707 23.8374 10.2345 23.6377 10.1412C23.4381 10.0478 23.2204 9.99964 23 10C22.6495 9.99932 22.3099 10.1214 22.04 10.345C21.8881 10.4709 21.7626 10.6256 21.6705 10.8001C21.5785 10.9746 21.5218 11.1656 21.5037 11.362C21.4856 11.5585 21.5064 11.7566 21.565 11.945C21.6235 12.1334 21.7187 12.3084 21.845 12.46L27.29 19H9.5C9.10218 19 8.72064 19.158 8.43934 19.4393C8.15804 19.7206 8 20.1022 8 20.5C8 20.8978 8.15804 21.2794 8.43934 21.5607C8.72064 21.842 9.10218 22 9.5 22Z" fill="#0058AB" fill-opacity="0.603922"/>
</svg>
