<svg width="24" height="25" viewBox="0 0 24 25" fill="none" xmlns="http://www.w3.org/2000/svg">
<path d="M18.7031 18.5094C17.6672 16.7094 15.7219 15.5 13.5 15.5H10.5C8.27812 15.5 6.33281 16.7094 5.29688 18.5094C6.94688 20.3469 9.3375 21.5 12 21.5C14.6625 21.5 17.0531 20.3422 18.7031 18.5094ZM0 12.5C0 9.3174 1.26428 6.26516 3.51472 4.01472C5.76516 1.76428 8.8174 0.5 12 0.5C15.1826 0.5 18.2348 1.76428 20.4853 4.01472C22.7357 6.26516 24 9.3174 24 12.5C24 15.6826 22.7357 18.7348 20.4853 20.9853C18.2348 23.2357 15.1826 24.5 12 24.5C8.8174 24.5 5.76516 23.2357 3.51472 20.9853C1.26428 18.7348 0 15.6826 0 12.5ZM12 13.25C12.8951 13.25 13.7535 12.8944 14.3865 12.2615C15.0194 11.6285 15.375 10.7701 15.375 9.875C15.375 8.97989 15.0194 8.12145 14.3865 7.48851C13.7535 6.85558 12.8951 6.5 12 6.5C11.1049 6.5 10.2465 6.85558 9.61351 7.48851C8.98058 8.12145 8.625 8.97989 8.625 9.875C8.625 10.7701 8.98058 11.6285 9.61351 12.2615C10.2465 12.8944 11.1049 13.25 12 13.25Z" fill="#12172A"/>
</svg>
